<?xml version="1.0" standalone="no"?>
<!DOCTYPE svg PUBLIC "-//W3C//DTD SVG 20010904//EN"
 "http://www.w3.org/TR/2001/REC-SVG-20010904/DTD/svg10.dtd">
<svg version="1.0" xmlns="http://www.w3.org/2000/svg"
 width="512.000000pt" height="512.000000pt" viewBox="0 0 512.000000 512.000000"
 preserveAspectRatio="xMidYMid meet">
<metadata>
Created by potrace 1.14, written by Peter Selinger 2001-2017
</metadata>
<g transform="translate(0.000000,512.000000) scale(0.100000,-0.100000)"
fill="#000000" stroke="none">
<path d="M2453 4895 c-110 -24 -170 -58 -328 -187 -38 -31 -119 -95 -178 -142
l-108 -86 -352 -1 c-194 0 -363 -2 -376 -5 -78 -14 -186 -95 -220 -164 -32
-62 -35 -91 -36 -355 l-1 -260 -65 -54 c-86 -72 -90 -75 -199 -160 -52 -41
-114 -95 -137 -120 -50 -54 -107 -165 -122 -239 -8 -37 -11 -425 -11 -1250 0
-1307 -3 -1246 58 -1370 36 -75 149 -188 228 -230 126 -65 10 -62 1954 -62
1939 0 1824 -3 1953 61 78 40 192 153 229 229 61 125 59 61 56 1401 l-3 1224
-22 58 c-24 63 -66 133 -110 184 -23 26 -283 238 -369 301 l-26 18 -3 270 c-1
152 -7 283 -13 301 -17 51 -71 126 -115 159 -82 61 -101 63 -498 64 l-361 0
-46 38 c-26 20 -56 44 -67 54 -35 28 -109 89 -125 101 -9 7 -47 38 -87 69 -39
31 -92 71 -119 88 -102 64 -257 91 -381 65z"/>
</g>
</svg>
