<svg width="543" height="90" viewBox="0 0 543 90" fill="none" xmlns="http://www.w3.org/2000/svg">
<path d="M59.5 77C60.7491 77 61.9387 76.6949 63.0689 76.0238L76.0952 68.336C78.7123 66.8106 81.7459 66.1395 84.7794 66.5055C100.601 68.397 111.665 71.4477 114.936 72.4239C115.591 72.607 116.364 72.3629 116.78 71.8138C117.315 71.1426 117.97 70.0444 118.505 68.458C118.981 66.9326 119.04 65.6513 118.981 64.7361C118.921 64.004 118.446 63.3328 117.732 63.1498C112.617 61.6244 89.9543 55.3399 59.5 55.3399C29.0457 55.3399 6.3835 61.6244 1.26813 63.1498C0.554361 63.3328 0.0785147 64.004 0.0190337 64.7361C-0.0404472 65.5903 0.0190355 66.8716 0.494883 68.458C0.970731 70.0444 1.6845 71.1426 2.21983 71.8138C2.6362 72.3629 3.40945 72.607 4.06374 72.4239C7.33519 71.4477 18.4581 68.397 34.2206 66.5055C37.2541 66.1395 40.2876 66.8106 42.9048 68.336L55.9311 76.0238C57.0613 76.6949 58.3104 77 59.5 77Z" fill="#0062E3"/>
<path d="M37.7895 33.7409C38.5032 35.0222 39.6334 35.8764 40.9419 36.2425C42.2505 36.6086 43.6186 36.4255 44.8677 35.6933C46.1168 34.9612 46.9495 33.8019 47.3064 32.4596C47.6633 31.1173 47.4848 29.7139 46.7711 28.4326L35.0533 7.62678C34.6964 6.95562 33.9232 6.71157 33.2094 6.77258C32.2577 6.83359 30.9491 7.32171 29.4026 8.23692C27.8561 9.15214 26.7855 10.0673 26.2501 10.8605C25.8338 11.4707 25.7148 12.2639 26.0717 12.935L37.7895 33.7409Z" fill="#0062E3"/>
<path d="M27.0829 48.6284C28.332 49.3605 29.7595 49.4826 31.0086 49.1775C32.3172 48.8114 33.4473 47.9572 34.1611 46.6759C34.8749 45.3946 34.9938 43.9303 34.6964 42.649C34.399 41.3677 33.5068 40.1474 32.2577 39.4152L11.9747 27.3954C11.3204 27.0293 10.5472 27.1513 9.95236 27.5784C9.1791 28.1276 8.28689 29.2258 7.39467 30.8122C6.50246 32.3986 6.02661 33.7409 5.96713 34.7171C5.90765 35.5103 6.20505 36.2425 6.79986 36.6086L27.0829 48.6284Z" fill="#0062E3"/>
<path d="M64.6748 26.3582C64.6748 27.8225 64.08 29.1648 63.1878 30.141C62.2361 31.1173 60.987 31.6664 59.5 31.6664C58.0725 31.6664 56.7639 31.0563 55.8122 30.141C54.8605 29.1648 54.3251 27.8835 54.3251 26.3582V2.37955C54.3251 1.58637 54.801 0.976227 55.5148 0.671156C56.3475 0.244056 57.7156 0 59.5 0C61.2844 0 62.6525 0.244056 63.4852 0.671156C64.1395 1.03724 64.6748 1.58637 64.6748 2.37955V26.3582Z" fill="#0062E3"/>
<path d="M81.2105 33.7409C80.4968 35.0222 79.3666 35.8764 78.0581 36.2425C76.7495 36.6086 75.3814 36.4255 74.1323 35.6933C72.8832 34.9612 72.0505 33.8019 71.6936 32.4596C71.3367 31.1173 71.5152 29.7139 72.2289 28.4326L83.9467 7.62678C84.3036 6.95562 85.0768 6.71157 85.7906 6.77258C86.7423 6.83359 88.0509 7.32171 89.5974 8.23692C91.1439 9.15214 92.2145 10.0673 92.7499 10.8605C93.1662 11.4707 93.2852 12.2639 92.9283 12.935L81.2105 33.7409Z" fill="#0062E3"/>
<path d="M91.9171 48.6284C90.668 49.3605 89.2405 49.4826 87.9914 49.1775C86.6828 48.8114 85.5527 47.9572 84.8389 46.6759C84.1251 45.3946 84.0062 43.9303 84.3036 42.649C84.6604 41.3067 85.4932 40.1474 86.7423 39.4152L107.025 27.3954C107.68 27.0293 108.453 27.1513 109.048 27.5784C109.821 28.1276 110.713 29.2258 111.605 30.8122C112.498 32.3986 112.973 33.7409 113.033 34.7171C113.092 35.5103 112.795 36.2425 112.2 36.6086L91.9171 48.6284Z" fill="#0062E3"/>
<path d="M221.125 31.7828H230.941C231.3 31.7828 231.599 32.0287 231.779 32.3361L241.534 58.0328L250.99 32.3361C251.11 31.9672 251.469 31.7828 251.828 31.7828H261.464C262.123 31.7828 262.542 32.459 262.242 33.0123L238.302 89.4467C238.182 89.7541 237.823 90 237.524 90H229.025C228.427 90 227.948 89.3238 228.247 88.7705L236.447 69.0369L220.407 33.0123C220.048 32.459 220.467 31.7828 221.125 31.7828Z" fill="#0062E3"/>
<path d="M366.023 37.5V32.7049C366.023 32.2131 366.442 31.7828 366.92 31.7828H375.599C376.078 31.7828 376.497 32.2131 376.497 32.7049V71.0041C376.497 71.4959 376.078 71.9262 375.599 71.9262H366.92C366.442 71.9262 366.023 71.4959 366.023 71.0041V65.9631C364.167 68.9139 360.098 72.7869 353.454 72.7869C340.766 72.7869 334.182 62.8279 334.182 51.7008C334.182 37.1926 343.998 30.9836 353.155 30.9836C359.2 30.9221 363.389 33.8729 366.023 37.5ZM344.656 51.7623C344.656 58.6475 348.786 63.9344 355.429 63.9344C362.073 63.9344 366.322 59.3238 366.322 52.2541C366.322 45.1844 362.192 39.7746 355.13 39.7746C348.487 39.7746 344.656 45.0615 344.656 51.7623Z" fill="#0062E3"/>
<path d="M384.337 71.0041V32.7049C384.337 32.2131 384.756 31.7828 385.235 31.7828H393.913C394.392 31.7828 394.811 32.2131 394.811 32.7049V37.9303C396.846 34.3033 400.676 30.9836 407.2 30.9836C413.903 30.9836 421.384 34.3648 421.384 49.918V71.0041C421.384 71.4959 420.965 71.9262 420.486 71.9262H411.808C411.329 71.9262 410.91 71.4959 410.91 71.0041V50.1025C410.91 46.3525 410.013 39.8975 403.549 39.8975C397.085 39.8975 394.811 45.7377 394.811 51.1475V71.0041C394.811 71.4959 394.392 71.9262 393.913 71.9262H385.235C384.696 71.8647 384.337 71.4959 384.337 71.0041Z" fill="#0062E3"/>
<path d="M428.806 71.0041V32.7049C428.806 32.2131 429.225 31.7828 429.703 31.7828H438.382C438.86 31.7828 439.279 32.2131 439.279 32.7049V37.9303C441.314 34.3033 445.145 30.9836 451.668 30.9836C458.372 30.9836 465.853 34.3648 465.853 49.918V71.0041C465.853 71.4959 465.434 71.9262 464.955 71.9262H456.277C455.798 71.9262 455.379 71.4959 455.379 71.0041V50.1025C455.379 46.3525 454.481 39.8975 448.018 39.8975C441.554 39.8975 439.279 45.7377 439.279 51.1475V71.0041C439.279 71.4959 438.86 71.9262 438.382 71.9262H429.703C429.225 71.8647 428.806 71.4959 428.806 71.0041Z" fill="#0062E3"/>
<path d="M519.958 31.7828H528.397C528.875 31.7828 529.294 32.2131 529.294 32.7049V40.6352C530.97 32.7664 537.554 30.0615 542.342 31.2295C542.761 31.291 543 31.6598 543 32.0902V40.8197C543 41.373 542.521 41.8033 541.923 41.6803C533.065 39.8975 529.474 44.8156 529.474 51.7008C529.474 56.6189 529.474 67.7459 529.474 71.0041C529.474 71.4959 529.055 71.9262 528.576 71.9262H519.898C519.419 71.9262 519 71.4959 519 71.0041V32.7049C519.06 32.2131 519.479 31.7828 519.958 31.7828Z" fill="#0062E3"/>
<path d="M163.609 40.5123C160.916 39.5902 159.479 39.0369 157.325 38.2992C155.11 37.5 151.34 35.2869 151.34 31.7213C151.34 28.1557 153.734 25.8812 158.582 25.8812C163.011 25.8812 165.464 28.0943 167.08 31.6598C167.32 32.1516 167.858 32.3361 168.337 32.0902L175.459 27.8484C175.819 27.6025 175.998 27.1107 175.819 26.6803C173.664 21.8238 168.636 15.9836 158.701 15.9836C147.629 15.9836 140.686 22.7459 140.686 31.6598C140.686 40.5123 146.372 45.123 154.093 47.8279C156.906 48.8115 158.043 49.2418 160.437 50.041C164.986 51.6393 167.08 53.7295 167.08 56.6189C167.08 59.5082 165.285 62.9508 158.223 62.9508C151.759 62.9508 149.484 59.4467 148.168 56.127C147.988 55.6352 147.39 55.3893 146.911 55.6967L139.43 60.123C139.07 60.3689 138.891 60.7992 139.07 61.2295C141.943 68.4836 149.784 72.7869 158.582 72.7869C168.936 72.7869 177.674 67.377 177.674 56.4344C177.674 45.4918 166.302 41.4344 163.609 40.5123Z" fill="#0062E3"/>
<path d="M220.766 61.4139C220.527 60.9836 219.928 60.7992 219.509 61.1066C216.158 63.6271 212.207 63.6885 209.215 58.9549C206.701 54.959 203.649 50.041 203.649 50.041L216.816 33.2582C217.295 32.6434 216.876 31.7828 216.158 31.7828H205.863C205.564 31.7828 205.325 31.9057 205.145 32.1516L193.774 48.1967V15.9221C193.774 15.4303 193.355 15 192.876 15H184.198C183.719 15 183.3 15.4303 183.3 15.9221V71.0041C183.3 71.4959 183.719 71.9262 184.198 71.9262H192.936C193.414 71.9262 193.833 71.4959 193.833 71.0041V53.1148C193.833 53.1148 199.639 62.5205 201.853 66.0246C204.846 70.8197 209.035 72.7869 213.584 72.7869C217.893 72.7869 220.646 71.6189 223.938 68.2992C224.237 67.9918 224.297 67.5615 224.118 67.1926L220.766 61.4139Z" fill="#0062E3"/>
<path d="M283.07 48.75C280.317 47.7049 279.36 47.3361 277.265 46.5369C275.17 45.7377 273.315 44.5697 273.315 42.8484C273.315 41.127 274.871 39.2213 278.043 39.2213C280.796 39.2213 282.472 40.3279 283.429 42.2951C283.669 42.7869 284.207 42.9098 284.626 42.6639L290.731 39.0369C291.15 38.791 291.27 38.2377 291.03 37.8074C289.355 34.7951 286.063 30.9836 278.103 30.9836C268.347 30.9836 263.32 36.7623 263.32 43.1557C263.32 49.5492 268.407 52.5615 273.075 54.4672C278.342 56.6803 278.701 56.8033 279.36 57.0492C280.975 57.7254 282.951 58.7705 282.951 60.6762C282.951 62.582 280.796 64.3033 277.504 64.3033C274.452 64.3033 270.98 63.0123 269.544 59.3852C269.365 58.8934 268.766 58.6475 268.287 58.9549L262.123 62.582C261.764 62.8279 261.584 63.2582 261.764 63.6885C263.559 68.4836 268.886 72.7254 277.504 72.7254C286.841 72.7254 293.065 67.623 293.065 60.4303C293.065 53.2377 288.277 50.7172 283.07 48.75Z" fill="#0062E3"/>
<path d="M318.142 40.5123C322.033 40.5123 324.906 41.7418 327.599 43.709C328.018 44.0164 328.616 43.8934 328.856 43.4631L332.447 37.0697C332.686 36.6393 332.566 36.1475 332.147 35.9016C328.437 33.3197 323.828 30.9221 317.604 30.9221C311.439 30.9221 305.753 32.6434 301.684 36.8852C297.614 41.0656 295.758 46.0451 295.758 51.9467C295.758 59.0779 298.631 63.627 301.743 66.8238C304.856 70.0205 310.482 72.7254 317.664 72.7254C324.128 72.7254 328.916 69.959 332.207 67.7459C332.566 67.5 332.686 66.9467 332.447 66.5779L328.916 60.2459C328.676 59.8156 328.078 59.6311 327.659 59.9385C325.324 61.6598 321.973 63.1352 318.202 63.1352C313.953 63.1352 306.232 60.6762 306.232 51.8238C306.232 42.9713 313.893 40.5123 318.142 40.5123Z" fill="#0062E3"/>
<path d="M494.222 63.873C490.751 63.873 487.459 63.0123 485.065 61.0451C482.671 59.0779 481.534 57.0492 481.534 54.6516H512.536C513.015 54.6516 513.434 54.2213 513.434 53.7295C513.254 44.2623 510.262 39.8361 507.389 36.8238C504.397 33.75 499.309 30.9221 492.606 30.9221C485.903 30.9221 480.756 33.4426 477.225 37.0082C473.753 40.5738 471.12 45.123 471.12 52.0082C471.12 58.8934 473.813 63.4426 477.105 66.8238C480.397 70.2049 485.783 72.7254 493.504 72.7254C500.806 72.7254 506.97 70.082 511.399 64.8566C511.758 64.4262 511.638 63.75 511.16 63.5041L504.995 59.8156C504.696 59.6311 504.277 59.6311 503.978 59.9385C500.925 62.8893 497.035 63.873 494.222 63.873ZM492.546 39.5287C497.514 39.5287 502.062 42.6025 502.781 48.1352H481.893C483.269 42.1721 487.579 39.5287 492.546 39.5287Z" fill="#0062E3"/>
</svg>
