<?xml version="1.0" encoding="utf-8"?>
<!-- Generator: Adobe Illustrator 25.2.1, SVG Export Plug-In . SVG Version: 6.00 Build 0)  -->
<svg version="1.1" id="Layer_1" xmlns="http://www.w3.org/2000/svg" xmlns:xlink="http://www.w3.org/1999/xlink" x="0px" y="0px"
	 viewBox="0 0 202 40" style="enable-background:new 0 0 202 40;" xml:space="preserve">
<style type="text/css">
	.st0{fill:#05203C;}
</style>
<g id="g2245_2_" transform="matrix(1.9957809,0,0,1.9957809,-552.01818,-166.86533)">
	<g id="g2247_9_">
		<path id="path2249_9_" class="st0" d="M288.1,99.4c0.2,0,0.5-0.1,0.7-0.2l2.4-1.4c0.5-0.3,1-0.4,1.6-0.3c3,0.3,5,0.9,5.6,1.1
			c0.1,0.1,0.3,0,0.3-0.1c0.1-0.1,0.2-0.3,0.3-0.6s0.1-0.5,0.1-0.7c0-0.1-0.1-0.2-0.2-0.3c-1-0.3-5.2-1.4-10.8-1.4
			c-5.6,0-9.8,1.1-10.8,1.4c-0.1,0.1-0.2,0.2-0.2,0.3c0,0.2,0,0.4,0.1,0.7s0.2,0.5,0.3,0.6c0.1,0.1,0.2,0.2,0.3,0.1
			c0.6-0.2,2.7-0.7,5.6-1.1c0.6-0.1,1.1,0.1,1.6,0.3l2.4,1.4C287.7,99.3,287.9,99.4,288.1,99.4z"/>
		<path id="path2251_9_" class="st0" d="M284.1,91.6c0.1,0.2,0.3,0.4,0.6,0.5c0.2,0.1,0.5,0.1,0.7-0.1s0.4-0.3,0.5-0.6
			c0.1-0.2,0.1-0.5-0.1-0.7l-2.2-3.7c-0.1-0.1-0.2-0.2-0.3-0.2c-0.2,0-0.4,0.1-0.7,0.3c-0.3,0.2-0.5,0.3-0.6,0.5
			c-0.1,0.1-0.1,0.2-0.1,0.4L284.1,91.6z"/>
		<path id="path2253_9_" class="st0" d="M282.1,94.3c0.2,0.1,0.5,0.2,0.7,0.1c0.2-0.1,0.5-0.2,0.6-0.5s0.2-0.5,0.1-0.7
			c-0.1-0.2-0.2-0.5-0.5-0.6l-3.7-2.2c-0.1-0.1-0.3-0.1-0.4,0.1c-0.2,0.1-0.3,0.3-0.5,0.6c-0.2,0.3-0.2,0.5-0.3,0.7
			c0,0.2,0.1,0.3,0.2,0.3L282.1,94.3z"/>
		<path id="path2255_9_" class="st0" d="M289.1,90.3c0,0.3-0.1,0.5-0.3,0.7c-0.2,0.2-0.4,0.3-0.7,0.3s-0.5-0.1-0.7-0.3
			c-0.2-0.2-0.3-0.4-0.3-0.7v-4.3c0-0.2,0.1-0.2,0.2-0.3c0.2-0.1,0.4-0.1,0.7-0.1c0.3,0,0.6,0.1,0.7,0.1c0.1,0.1,0.2,0.2,0.2,0.3
			L289.1,90.3L289.1,90.3z"/>
		<path id="path2257_9_" class="st0" d="M292.1,91.6c-0.1,0.2-0.3,0.4-0.6,0.5s-0.5,0.1-0.7-0.1c-0.2-0.1-0.4-0.3-0.5-0.6
			c-0.1-0.2-0.1-0.5,0.1-0.7l2.2-3.7c0.1-0.1,0.2-0.2,0.3-0.2c0.2,0,0.4,0.1,0.7,0.3c0.3,0.2,0.5,0.3,0.6,0.5
			c0.1,0.1,0.1,0.2,0.1,0.4L292.1,91.6z"/>
		<path id="path2259_9_" class="st0" d="M294.1,94.3c-0.2,0.1-0.5,0.2-0.7,0.1c-0.2-0.1-0.5-0.2-0.6-0.5s-0.2-0.5-0.1-0.7
			c0.1-0.2,0.2-0.5,0.5-0.6l3.7-2.2c0.1-0.1,0.3-0.1,0.4,0.1c0.2,0.1,0.3,0.3,0.5,0.6c0.2,0.3,0.2,0.5,0.3,0.7
			c0,0.2-0.1,0.3-0.2,0.3L294.1,94.3z"/>
	</g>
	<g id="g2261_3_">
		<path id="path2263_3_" class="st0" d="M318.1,91.3h1.8c0.1,0,0.1,0.1,0.2,0.1l1.8,4.6l1.7-4.6c0-0.1,0.1-0.1,0.2-0.1h1.8
			c0.1,0,0.2,0.1,0.2,0.2l-4.4,10.1c0,0.1-0.1,0.1-0.2,0.1h-1.6c-0.1,0-0.2-0.1-0.2-0.2l1.5-3.5l-3-6.5
			C317.9,91.4,318,91.3,318.1,91.3z"/>
		<path id="path2265_3_" class="st0" d="M344.8,92.3v-0.9c0-0.1,0.1-0.2,0.2-0.2h1.6c0.1,0,0.2,0.1,0.2,0.2v6.9
			c0,0.1-0.1,0.2-0.2,0.2h-1.6c-0.1,0-0.2-0.1-0.2-0.2v-0.9c-0.3,0.5-1.1,1.2-2.3,1.2c-2.3,0-3.5-1.8-3.5-3.8c0-2.6,1.8-3.7,3.5-3.7
			C343.5,91.1,344.3,91.7,344.8,92.3z M340.8,94.9c0,1.2,0.7,2.2,2,2.2c1.2,0,2-0.9,2-2.1s-0.7-2.2-2-2.2
			C341.5,92.7,340.8,93.7,340.8,94.9z"/>
		<path id="path2267_3_" class="st0" d="M348.1,98.3v-6.9c0-0.1,0.1-0.2,0.2-0.2h1.6c0.1,0,0.2,0.1,0.2,0.2v0.9
			c0.4-0.6,1.1-1.2,2.3-1.2c1.2,0,2.6,0.6,2.6,3.4v3.8c0,0.1-0.1,0.2-0.2,0.2h-1.6c-0.1,0-0.2-0.1-0.2-0.2v-3.7
			c0-0.7-0.2-1.8-1.4-1.8s-1.6,1-1.6,2v3.6c0,0.1-0.1,0.2-0.2,0.2h-1.6C348.2,98.4,348.1,98.4,348.1,98.3z"/>
		<path id="path2269_3_" class="st0" d="M356.3,98.3v-6.9c0-0.1,0.1-0.2,0.2-0.2h1.6c0.1,0,0.2,0.1,0.2,0.2v0.9
			c0.4-0.6,1.1-1.2,2.3-1.2c1.2,0,2.6,0.6,2.6,3.4v3.8c0,0.1-0.1,0.2-0.2,0.2h-1.6c-0.1,0-0.2-0.1-0.2-0.2v-3.7
			c0-0.7-0.2-1.8-1.4-1.8s-1.6,1-1.6,2v3.6c0,0.1-0.1,0.2-0.2,0.2h-1.6C356.4,98.4,356.3,98.4,356.3,98.3z"/>
		<path id="path2271_3_" class="st0" d="M373.1,91.3h1.5c0.1,0,0.2,0.1,0.2,0.2v1.4c0.3-1.4,1.5-1.9,2.4-1.7c0.1,0,0.1,0.1,0.1,0.2
			v1.6c0,0.1-0.1,0.2-0.2,0.2c-1.6-0.3-2.3,0.6-2.3,1.8c0,0.9,0,2.9,0,3.5c0,0.1-0.1,0.2-0.2,0.2h-1.6c-0.1,0-0.2-0.1-0.2-0.2v-6.9
			C372.9,91.3,373,91.3,373.1,91.3z"/>
		<path id="path2273_3_" class="st0" d="M307.5,92.8c-0.5-0.2-0.7-0.3-1.1-0.4c-0.4-0.2-1.1-0.6-1.1-1.2c0-0.6,0.5-1,1.3-1
			c0.8,0,1.2,0.4,1.6,1c0.1,0.1,0.2,0.1,0.2,0.1l1.3-0.7c0.1-0.1,0.1-0.1,0.1-0.2c-0.4-0.9-1.3-1.9-3.1-1.9c-2,0-3.3,1.2-3.3,2.8
			c0,1.6,1,2.4,2.4,2.9c0.5,0.2,0.7,0.2,1.2,0.4c0.9,0.3,1.2,0.7,1.2,1.2s-0.3,1.1-1.6,1.1c-1.2,0-1.6-0.6-1.9-1.2
			c-0.1-0.1-0.2-0.1-0.2-0.1l-1.4,0.8c-0.1,0.1-0.1,0.1-0.1,0.2c0.5,1.3,2,2,3.6,2c1.9,0,3.5-1,3.5-3C310.1,93.7,308,93,307.5,92.8z
			"/>
		<path id="path2275_3_" class="st0" d="M318,96.6c-0.1-0.1-0.2-0.1-0.2-0.1c-0.6,0.5-1.4,0.5-1.9-0.4c-0.5-0.7-1-1.6-1-1.6l2.4-3
			c0.1-0.1,0-0.3-0.1-0.3h-1.9c-0.1,0-0.1,0-0.1,0.1l-2.1,2.9v-5.7c0-0.1-0.1-0.2-0.2-0.2h-1.6c-0.1,0-0.2,0.1-0.2,0.2v9.9
			c0,0.1,0.1,0.2,0.2,0.2h1.6c0.1,0,0.2-0.1,0.2-0.2v-3.2c0,0,1.1,1.7,1.5,2.3c0.6,0.9,1.3,1.2,2.2,1.2c0.8,0,1.3-0.2,1.9-0.8
			c0.1-0.1,0.1-0.1,0.1-0.2L318,96.6z"/>
		<path id="path2277_3_" class="st0" d="M329.5,94.3c-0.5-0.2-0.7-0.2-1.1-0.4s-0.7-0.3-0.7-0.7c0-0.3,0.3-0.6,0.9-0.6
			c0.5,0,0.8,0.2,1,0.6c0.1,0.1,0.2,0.1,0.2,0.1l1.1-0.6c0.1-0.1,0.1-0.2,0.1-0.2c-0.3-0.6-0.9-1.2-2.4-1.2c-1.8,0-2.7,1-2.7,2.2
			c0,1.1,0.9,1.7,1.8,2c1,0.4,1,0.4,1.1,0.5c0.3,0.1,0.7,0.3,0.7,0.6s-0.4,0.6-1,0.6c-0.6,0-1.2-0.2-1.5-0.9
			c-0.1-0.1-0.2-0.1-0.2-0.1l-1.1,0.6c-0.1,0.1-0.1,0.1-0.1,0.2c0.3,0.9,1.3,1.6,2.9,1.6c1.7,0,2.8-0.9,2.8-2.2
			C331.3,95.1,330.4,94.7,329.5,94.3z"/>
		<path id="path2279_3_" class="st0" d="M335.9,92.8c0.7,0,1.2,0.2,1.8,0.6c0.1,0.1,0.2,0.1,0.2-0.1l0.7-1.1c0.1-0.1,0-0.2-0.1-0.2
			c-0.7-0.5-1.5-0.9-2.7-0.9c-1.1,0-2.2,0.3-3,1.1c-0.7,0.7-1.1,1.6-1.1,2.7c0,1.3,0.5,2.1,1.1,2.7c0.6,0.6,1.6,1.1,3,1.1
			c1.2,0,2-0.5,2.7-0.9c0.1-0.1,0.1-0.2,0.1-0.2l-0.6-1.1c-0.1-0.1-0.2-0.1-0.2-0.1c-0.5,0.3-1,0.6-1.8,0.6c-0.8,0-2.2-0.5-2.2-2
			S335.2,92.8,335.9,92.8z"/>
		<path id="path2281_3_" class="st0" d="M368.3,97c-0.6,0-1.2-0.2-1.7-0.5c-0.5-0.3-0.6-0.7-0.6-1.1h5.7c0.1,0,0.2-0.1,0.2-0.2
			c-0.1-1.7-0.6-2.5-1.1-3c-0.6-0.6-1.5-1.1-2.7-1.1c-1.2,0-2.2,0.5-2.8,1.1c-0.6,0.6-1.1,1.5-1.1,2.7s0.5,2,1.1,2.7
			c0.6,0.6,1.6,1.1,3,1.1c1.4,0,2.5-0.5,3.3-1.4c0.1-0.1,0.1-0.2-0.1-0.2l-1.1-0.7c-0.1-0.1-0.1-0.1-0.2,0
			C369.6,96.8,368.8,97,368.3,97z M368.1,92.6c0.9,0,1.8,0.6,1.9,1.5h-3.9C366.3,93.1,367.1,92.6,368.1,92.6z"/>
	</g>
</g>
</svg>
